<svg width="88" height="24" viewBox="0 0 88 24" fill="none" xmlns="http://www.w3.org/2000/svg">
<path d="M12 22C14.1217 22 16.1566 21.1571 17.6569 19.6569C19.1571 18.1566 20 16.1217 20 14C20 9.582 16.418 2 12 2C7.582 2 4 9.582 4 14C4 16.1217 4.84285 18.1566 6.34315 19.6569C7.84344 21.1571 9.87827 22 12 22Z" stroke="black" stroke-width="1.5" stroke-linecap="round" stroke-linejoin="round"/>
<path d="M9.5 3.5L12 8L9.5 11L12 14.5" stroke="black" stroke-width="1.5" stroke-linecap="round" stroke-linejoin="round"/>
<path d="M28.1378 19H36.9844V16.718H30.9055V13.5923H36.505V11.3104H30.9055V8.19105H36.9588V5.90909H28.1378V19ZM43.5314 22.8864C46.3375 22.8864 48.3319 21.608 48.3319 19.0959V9.18182H45.628V10.831H45.5257C45.1614 10.032 44.3624 9.05398 42.7196 9.05398C40.5655 9.05398 38.7438 10.7287 38.7438 14.0717C38.7438 17.3381 40.5144 18.8594 42.726 18.8594C44.2921 18.8594 45.1678 18.0732 45.5257 17.2614H45.6408V19.0575C45.6408 20.4062 44.7779 20.9304 43.5953 20.9304C42.3936 20.9304 41.7864 20.4062 41.5627 19.8118L39.0442 20.1506C39.3702 21.6974 40.8851 22.8864 43.5314 22.8864ZM43.589 16.8139C42.253 16.8139 41.5243 15.7528 41.5243 14.0589C41.5243 12.3906 42.2402 11.2209 43.589 11.2209C44.9121 11.2209 45.6536 12.3395 45.6536 14.0589C45.6536 15.7912 44.8993 16.8139 43.589 16.8139ZM54.9221 22.8864C57.7282 22.8864 59.7225 21.608 59.7225 19.0959V9.18182H57.0186V10.831H56.9164C56.552 10.032 55.753 9.05398 54.1103 9.05398C51.9561 9.05398 50.1344 10.7287 50.1344 14.0717C50.1344 17.3381 51.905 18.8594 54.1167 18.8594C55.6827 18.8594 56.5584 18.0732 56.9164 17.2614H57.0314V19.0575C57.0314 20.4062 56.1685 20.9304 54.986 20.9304C53.7843 20.9304 53.177 20.4062 52.9533 19.8118L50.4348 20.1506C50.7608 21.6974 52.2757 22.8864 54.9221 22.8864ZM54.9796 16.8139C53.6436 16.8139 52.915 15.7528 52.915 14.0589C52.915 12.3906 53.6309 11.2209 54.9796 11.2209C56.3027 11.2209 57.0442 12.3395 57.0442 14.0589C57.0442 15.7912 56.29 16.8139 54.9796 16.8139ZM70.0584 11.9815C69.8155 10.1726 68.3581 9.05398 65.878 9.05398C63.3659 9.05398 61.7104 10.2173 61.7168 12.1094C61.7104 13.5795 62.6373 14.532 64.5549 14.9155L66.2551 15.2543C67.1117 15.4268 67.5016 15.7401 67.5144 16.2322C67.5016 16.8139 66.8688 17.2294 65.9164 17.2294C64.9448 17.2294 64.2992 16.8139 64.133 16.0149L61.4547 16.1555C61.7104 18.0348 63.3084 19.1918 65.91 19.1918C68.454 19.1918 70.2757 17.8942 70.2821 15.9574C70.2757 14.5384 69.3489 13.6882 67.4441 13.2983L65.6671 12.9403C64.753 12.7422 64.4142 12.429 64.4206 11.956C64.4142 11.3679 65.079 10.9844 65.9228 10.9844C66.8688 10.9844 67.4313 11.5021 67.5655 12.1349L70.0584 11.9815ZM74.8157 5.90909H72.0479V19H74.8157V5.90909ZM77.0929 19H79.8606V14.7557H82.1873C85.198 14.7557 86.9494 12.9595 86.9494 10.3452C86.9494 7.74361 85.2299 5.90909 82.2576 5.90909H77.0929V19ZM79.8606 12.5376V8.17188H81.7271C83.3251 8.17188 84.0985 9.04119 84.0985 10.3452C84.0985 11.6428 83.3251 12.5376 81.7399 12.5376H79.8606Z" fill="black"/>
</svg>
