<svg width="88" height="24" viewBox="0 0 88 24" fill="none" xmlns="http://www.w3.org/2000/svg">
<path d="M12 22C14.1217 22 16.1566 21.1571 17.6569 19.6569C19.1571 18.1566 20 16.1217 20 14C20 9.582 16.418 2 12 2C7.582 2 4 9.582 4 14C4 16.1217 4.84285 18.1566 6.34315 19.6569C7.84344 21.1571 9.87827 22 12 22Z" stroke="white" stroke-width="1.5" stroke-linecap="round" stroke-linejoin="round"/>
<path d="M9.5 3.5L12 8L9.5 11L12 14.5" stroke="white" stroke-width="1.5" stroke-linecap="round" stroke-linejoin="round"/>
<path d="M28.1378 18H36.9844V15.718H30.9055V12.5923H36.505V10.3104H30.9055V7.19105H36.9588V4.90909H28.1378V18ZM43.5314 21.8864C46.3375 21.8864 48.3319 20.608 48.3319 18.0959V8.18182H45.628V9.83097H45.5257C45.1614 9.03196 44.3624 8.05398 42.7196 8.05398C40.5655 8.05398 38.7438 9.72869 38.7438 13.0717C38.7438 16.3381 40.5144 17.8594 42.726 17.8594C44.2921 17.8594 45.1678 17.0732 45.5257 16.2614H45.6408V18.0575C45.6408 19.4062 44.7779 19.9304 43.5953 19.9304C42.3936 19.9304 41.7864 19.4062 41.5627 18.8118L39.0442 19.1506C39.3702 20.6974 40.8851 21.8864 43.5314 21.8864ZM43.589 15.8139C42.253 15.8139 41.5243 14.7528 41.5243 13.0589C41.5243 11.3906 42.2402 10.2209 43.589 10.2209C44.9121 10.2209 45.6536 11.3395 45.6536 13.0589C45.6536 14.7912 44.8993 15.8139 43.589 15.8139ZM54.9221 21.8864C57.7282 21.8864 59.7225 20.608 59.7225 18.0959V8.18182H57.0186V9.83097H56.9164C56.552 9.03196 55.753 8.05398 54.1103 8.05398C51.9561 8.05398 50.1344 9.72869 50.1344 13.0717C50.1344 16.3381 51.905 17.8594 54.1167 17.8594C55.6827 17.8594 56.5584 17.0732 56.9164 16.2614H57.0314V18.0575C57.0314 19.4062 56.1685 19.9304 54.986 19.9304C53.7843 19.9304 53.177 19.4062 52.9533 18.8118L50.4348 19.1506C50.7608 20.6974 52.2757 21.8864 54.9221 21.8864ZM54.9796 15.8139C53.6436 15.8139 52.915 14.7528 52.915 13.0589C52.915 11.3906 53.6309 10.2209 54.9796 10.2209C56.3027 10.2209 57.0442 11.3395 57.0442 13.0589C57.0442 14.7912 56.29 15.8139 54.9796 15.8139ZM70.0584 10.9815C69.8155 9.17259 68.3581 8.05398 65.878 8.05398C63.3659 8.05398 61.7104 9.21733 61.7168 11.1094C61.7104 12.5795 62.6373 13.532 64.5549 13.9155L66.2551 14.2543C67.1117 14.4268 67.5016 14.7401 67.5144 15.2322C67.5016 15.8139 66.8688 16.2294 65.9164 16.2294C64.9448 16.2294 64.2992 15.8139 64.133 15.0149L61.4547 15.1555C61.7104 17.0348 63.3084 18.1918 65.91 18.1918C68.454 18.1918 70.2757 16.8942 70.2821 14.9574C70.2757 13.5384 69.3489 12.6882 67.4441 12.2983L65.6671 11.9403C64.753 11.7422 64.4142 11.429 64.4206 10.956C64.4142 10.3679 65.079 9.98438 65.9228 9.98438C66.8688 9.98438 67.4313 10.5021 67.5655 11.1349L70.0584 10.9815ZM74.8157 4.90909H72.0479V18H74.8157V4.90909ZM77.0929 18H79.8606V13.7557H82.1873C85.198 13.7557 86.9494 11.9595 86.9494 9.34517C86.9494 6.74361 85.2299 4.90909 82.2576 4.90909H77.0929V18ZM79.8606 11.5376V7.17188H81.7271C83.3251 7.17188 84.0985 8.04119 84.0985 9.34517C84.0985 10.6428 83.3251 11.5376 81.7399 11.5376H79.8606Z" fill="white"/>
</svg>
